<mxfile host="app.diagrams.net" modified="2023-10-13T04:20:32.574Z" agent="Mozilla/5.0 (Windows NT 10.0; Win64; x64) AppleWebKit/537.36 (KHTML, like Gecko) Chrome/117.0.0.0 Safari/537.36 Edg/117.0.2045.60" etag="Uti4h99jwl3IOb6HBqEv" version="22.0.4" type="device">
  <diagram id="C5RBs43oDa-KdzZeNtuy" name="Page-1">
    <mxGraphModel dx="1939" dy="1684" grid="1" gridSize="10" guides="1" tooltips="1" connect="1" arrows="1" fold="1" page="1" pageScale="1" pageWidth="827" pageHeight="1169" math="0" shadow="0">
      <root>
        <mxCell id="WIyWlLk6GJQsqaUBKTNV-0" />
        <mxCell id="WIyWlLk6GJQsqaUBKTNV-1" parent="WIyWlLk6GJQsqaUBKTNV-0" />
        <mxCell id="UC-qBo0WRgvxSOn6x_JI-2" value="&lt;font&gt;EDAD&lt;/font&gt;" style="ellipse;whiteSpace=wrap;html=1;" vertex="1" parent="WIyWlLk6GJQsqaUBKTNV-1">
          <mxGeometry x="175" y="-160" width="120" height="80" as="geometry" />
        </mxCell>
        <mxCell id="UC-qBo0WRgvxSOn6x_JI-5" value="" style="edgeStyle=orthogonalEdgeStyle;rounded=0;orthogonalLoop=1;jettySize=auto;html=1;" edge="1" parent="WIyWlLk6GJQsqaUBKTNV-1" source="UC-qBo0WRgvxSOn6x_JI-4" target="UC-qBo0WRgvxSOn6x_JI-2">
          <mxGeometry relative="1" as="geometry" />
        </mxCell>
        <mxCell id="UC-qBo0WRgvxSOn6x_JI-9" value="" style="edgeStyle=orthogonalEdgeStyle;rounded=0;orthogonalLoop=1;jettySize=auto;html=1;" edge="1" parent="WIyWlLk6GJQsqaUBKTNV-1" source="UC-qBo0WRgvxSOn6x_JI-4" target="UC-qBo0WRgvxSOn6x_JI-8">
          <mxGeometry relative="1" as="geometry" />
        </mxCell>
        <mxCell id="UC-qBo0WRgvxSOn6x_JI-10" value="NO" style="edgeLabel;html=1;align=center;verticalAlign=middle;resizable=0;points=[];" vertex="1" connectable="0" parent="UC-qBo0WRgvxSOn6x_JI-9">
          <mxGeometry x="0.18" y="8" relative="1" as="geometry">
            <mxPoint as="offset" />
          </mxGeometry>
        </mxCell>
        <mxCell id="UC-qBo0WRgvxSOn6x_JI-12" value="" style="edgeStyle=orthogonalEdgeStyle;rounded=0;orthogonalLoop=1;jettySize=auto;html=1;" edge="1" parent="WIyWlLk6GJQsqaUBKTNV-1" source="UC-qBo0WRgvxSOn6x_JI-4" target="UC-qBo0WRgvxSOn6x_JI-11">
          <mxGeometry relative="1" as="geometry" />
        </mxCell>
        <mxCell id="UC-qBo0WRgvxSOn6x_JI-16" style="edgeStyle=orthogonalEdgeStyle;rounded=0;orthogonalLoop=1;jettySize=auto;html=1;" edge="1" parent="WIyWlLk6GJQsqaUBKTNV-1" source="UC-qBo0WRgvxSOn6x_JI-4">
          <mxGeometry relative="1" as="geometry">
            <mxPoint x="235" y="160" as="targetPoint" />
          </mxGeometry>
        </mxCell>
        <mxCell id="UC-qBo0WRgvxSOn6x_JI-4" value="&lt;br&gt;&lt;span style=&quot;color: rgb(0, 0, 0); font-family: Helvetica; font-size: 12px; font-style: normal; font-variant-ligatures: normal; font-variant-caps: normal; font-weight: 400; letter-spacing: normal; orphans: 2; text-align: center; text-indent: 0px; text-transform: none; widows: 2; word-spacing: 0px; -webkit-text-stroke-width: 0px; background-color: rgb(251, 251, 251); text-decoration-thickness: initial; text-decoration-style: initial; text-decoration-color: initial; float: none; display: inline !important;&quot;&gt;¿ QUIERES SABER TU AÑOS, MESES, DÍAS, HORAS, MINUTOS, SEGUNDOS DE NACIMIENTO?&lt;/span&gt;" style="rhombus;whiteSpace=wrap;html=1;" vertex="1" parent="WIyWlLk6GJQsqaUBKTNV-1">
          <mxGeometry x="160" y="-20" width="150" height="140" as="geometry" />
        </mxCell>
        <mxCell id="UC-qBo0WRgvxSOn6x_JI-8" value="INICIO" style="rounded=1;whiteSpace=wrap;html=1;" vertex="1" parent="WIyWlLk6GJQsqaUBKTNV-1">
          <mxGeometry x="400" y="37.5" width="95" height="25" as="geometry" />
        </mxCell>
        <mxCell id="UC-qBo0WRgvxSOn6x_JI-15" value="" style="edgeStyle=orthogonalEdgeStyle;rounded=0;orthogonalLoop=1;jettySize=auto;html=1;" edge="1" parent="WIyWlLk6GJQsqaUBKTNV-1" source="UC-qBo0WRgvxSOn6x_JI-11" target="UC-qBo0WRgvxSOn6x_JI-14">
          <mxGeometry relative="1" as="geometry" />
        </mxCell>
        <mxCell id="UC-qBo0WRgvxSOn6x_JI-11" value="SI TIENES 16 AÑOS&amp;nbsp;" style="rounded=1;whiteSpace=wrap;html=1;" vertex="1" parent="WIyWlLk6GJQsqaUBKTNV-1">
          <mxGeometry y="32.5" width="100" height="35" as="geometry" />
        </mxCell>
        <mxCell id="UC-qBo0WRgvxSOn6x_JI-13" value="SI" style="text;html=1;align=center;verticalAlign=middle;resizable=0;points=[];autosize=1;strokeColor=none;fillColor=none;" vertex="1" parent="WIyWlLk6GJQsqaUBKTNV-1">
          <mxGeometry x="125" y="18" width="30" height="30" as="geometry" />
        </mxCell>
        <mxCell id="UC-qBo0WRgvxSOn6x_JI-34" value="" style="edgeStyle=orthogonalEdgeStyle;rounded=0;orthogonalLoop=1;jettySize=auto;html=1;" edge="1" parent="WIyWlLk6GJQsqaUBKTNV-1" source="UC-qBo0WRgvxSOn6x_JI-14" target="UC-qBo0WRgvxSOn6x_JI-24">
          <mxGeometry relative="1" as="geometry" />
        </mxCell>
        <mxCell id="UC-qBo0WRgvxSOn6x_JI-14" value="V A S A MULTIPLICAR LOS AÑOS POR 12" style="rounded=1;whiteSpace=wrap;html=1;" vertex="1" parent="WIyWlLk6GJQsqaUBKTNV-1">
          <mxGeometry x="-10" y="100" width="120" height="40" as="geometry" />
        </mxCell>
        <mxCell id="UC-qBo0WRgvxSOn6x_JI-20" value="" style="edgeStyle=orthogonalEdgeStyle;rounded=0;orthogonalLoop=1;jettySize=auto;html=1;" edge="1" parent="WIyWlLk6GJQsqaUBKTNV-1" source="UC-qBo0WRgvxSOn6x_JI-17" target="UC-qBo0WRgvxSOn6x_JI-19">
          <mxGeometry relative="1" as="geometry" />
        </mxCell>
        <mxCell id="UC-qBo0WRgvxSOn6x_JI-25" value="" style="edgeStyle=orthogonalEdgeStyle;rounded=0;orthogonalLoop=1;jettySize=auto;html=1;" edge="1" parent="WIyWlLk6GJQsqaUBKTNV-1" source="UC-qBo0WRgvxSOn6x_JI-17" target="UC-qBo0WRgvxSOn6x_JI-24">
          <mxGeometry relative="1" as="geometry" />
        </mxCell>
        <mxCell id="UC-qBo0WRgvxSOn6x_JI-27" value="" style="edgeStyle=orthogonalEdgeStyle;rounded=0;orthogonalLoop=1;jettySize=auto;html=1;" edge="1" parent="WIyWlLk6GJQsqaUBKTNV-1" source="UC-qBo0WRgvxSOn6x_JI-17" target="UC-qBo0WRgvxSOn6x_JI-26">
          <mxGeometry relative="1" as="geometry" />
        </mxCell>
        <mxCell id="UC-qBo0WRgvxSOn6x_JI-17" value="&lt;br style=&quot;border-color: var(--border-color);&quot;&gt;&lt;font&gt;¿ QUIERES SABER TU MESES DE NACIDO?&lt;/font&gt;" style="rhombus;whiteSpace=wrap;html=1;" vertex="1" parent="WIyWlLk6GJQsqaUBKTNV-1">
          <mxGeometry x="171.25" y="160" width="127.5" height="130" as="geometry" />
        </mxCell>
        <mxCell id="UC-qBo0WRgvxSOn6x_JI-19" value="INICIO" style="rounded=1;whiteSpace=wrap;html=1;" vertex="1" parent="WIyWlLk6GJQsqaUBKTNV-1">
          <mxGeometry x="400" y="210" width="95" height="30" as="geometry" />
        </mxCell>
        <mxCell id="UC-qBo0WRgvxSOn6x_JI-21" value="NO" style="text;html=1;align=center;verticalAlign=middle;resizable=0;points=[];autosize=1;strokeColor=none;fillColor=none;" vertex="1" parent="WIyWlLk6GJQsqaUBKTNV-1">
          <mxGeometry x="340" y="198" width="40" height="30" as="geometry" />
        </mxCell>
        <mxCell id="UC-qBo0WRgvxSOn6x_JI-35" value="" style="edgeStyle=orthogonalEdgeStyle;rounded=0;orthogonalLoop=1;jettySize=auto;html=1;" edge="1" parent="WIyWlLk6GJQsqaUBKTNV-1" source="UC-qBo0WRgvxSOn6x_JI-24" target="UC-qBo0WRgvxSOn6x_JI-28">
          <mxGeometry relative="1" as="geometry" />
        </mxCell>
        <mxCell id="UC-qBo0WRgvxSOn6x_JI-24" value="TENDRÁS QUIE MULTIPLICAR LOS MESES POR 4.34524" style="rounded=1;whiteSpace=wrap;html=1;" vertex="1" parent="WIyWlLk6GJQsqaUBKTNV-1">
          <mxGeometry x="-13.120000000000001" y="201.56" width="126.25" height="46.88" as="geometry" />
        </mxCell>
        <mxCell id="UC-qBo0WRgvxSOn6x_JI-29" value="" style="edgeStyle=orthogonalEdgeStyle;rounded=0;orthogonalLoop=1;jettySize=auto;html=1;" edge="1" parent="WIyWlLk6GJQsqaUBKTNV-1" source="UC-qBo0WRgvxSOn6x_JI-26" target="UC-qBo0WRgvxSOn6x_JI-28">
          <mxGeometry relative="1" as="geometry" />
        </mxCell>
        <mxCell id="UC-qBo0WRgvxSOn6x_JI-31" value="" style="edgeStyle=orthogonalEdgeStyle;rounded=0;orthogonalLoop=1;jettySize=auto;html=1;" edge="1" parent="WIyWlLk6GJQsqaUBKTNV-1" source="UC-qBo0WRgvxSOn6x_JI-26" target="UC-qBo0WRgvxSOn6x_JI-30">
          <mxGeometry relative="1" as="geometry" />
        </mxCell>
        <mxCell id="UC-qBo0WRgvxSOn6x_JI-45" value="" style="edgeStyle=orthogonalEdgeStyle;rounded=0;orthogonalLoop=1;jettySize=auto;html=1;" edge="1" parent="WIyWlLk6GJQsqaUBKTNV-1" source="UC-qBo0WRgvxSOn6x_JI-26" target="UC-qBo0WRgvxSOn6x_JI-44">
          <mxGeometry relative="1" as="geometry" />
        </mxCell>
        <mxCell id="UC-qBo0WRgvxSOn6x_JI-26" value="&lt;br style=&quot;border-color: var(--border-color);&quot;&gt;&lt;font style=&quot;border-color: var(--border-color);&quot;&gt;¿ QUIERES SABER TUS DÍAS DE NACIDO?&lt;/font&gt;" style="rhombus;whiteSpace=wrap;html=1;" vertex="1" parent="WIyWlLk6GJQsqaUBKTNV-1">
          <mxGeometry x="176.25" y="330" width="117.5" height="120" as="geometry" />
        </mxCell>
        <mxCell id="UC-qBo0WRgvxSOn6x_JI-36" value="" style="edgeStyle=orthogonalEdgeStyle;rounded=0;orthogonalLoop=1;jettySize=auto;html=1;" edge="1" parent="WIyWlLk6GJQsqaUBKTNV-1" source="UC-qBo0WRgvxSOn6x_JI-28" target="UC-qBo0WRgvxSOn6x_JI-32">
          <mxGeometry relative="1" as="geometry" />
        </mxCell>
        <mxCell id="UC-qBo0WRgvxSOn6x_JI-28" value="P ARA CALCULAR&lt;br&gt;&lt;font&gt;LOS DÍAS MULTIPLICALA SEMANA POR 7&lt;/font&gt;" style="rounded=1;whiteSpace=wrap;html=1;" vertex="1" parent="WIyWlLk6GJQsqaUBKTNV-1">
          <mxGeometry x="-8.75" y="360" width="117.5" height="60" as="geometry" />
        </mxCell>
        <mxCell id="UC-qBo0WRgvxSOn6x_JI-33" value="" style="edgeStyle=orthogonalEdgeStyle;rounded=0;orthogonalLoop=1;jettySize=auto;html=1;" edge="1" parent="WIyWlLk6GJQsqaUBKTNV-1" source="UC-qBo0WRgvxSOn6x_JI-30" target="UC-qBo0WRgvxSOn6x_JI-32">
          <mxGeometry relative="1" as="geometry" />
        </mxCell>
        <mxCell id="UC-qBo0WRgvxSOn6x_JI-38" value="" style="edgeStyle=orthogonalEdgeStyle;rounded=0;orthogonalLoop=1;jettySize=auto;html=1;" edge="1" parent="WIyWlLk6GJQsqaUBKTNV-1" source="UC-qBo0WRgvxSOn6x_JI-30" target="UC-qBo0WRgvxSOn6x_JI-37">
          <mxGeometry relative="1" as="geometry" />
        </mxCell>
        <mxCell id="UC-qBo0WRgvxSOn6x_JI-47" value="" style="edgeStyle=orthogonalEdgeStyle;rounded=0;orthogonalLoop=1;jettySize=auto;html=1;" edge="1" parent="WIyWlLk6GJQsqaUBKTNV-1" source="UC-qBo0WRgvxSOn6x_JI-30" target="UC-qBo0WRgvxSOn6x_JI-46">
          <mxGeometry relative="1" as="geometry" />
        </mxCell>
        <mxCell id="UC-qBo0WRgvxSOn6x_JI-30" value="&lt;br style=&quot;border-color: var(--border-color);&quot;&gt;&lt;font style=&quot;border-color: var(--border-color);&quot;&gt;¿ QUIERES SABER TUS HORAS DE NACIDO?&lt;/font&gt;" style="rhombus;whiteSpace=wrap;html=1;" vertex="1" parent="WIyWlLk6GJQsqaUBKTNV-1">
          <mxGeometry x="172.5" y="505" width="125" height="125" as="geometry" />
        </mxCell>
        <mxCell id="UC-qBo0WRgvxSOn6x_JI-32" value="P ARA SABER&amp;nbsp;&lt;br&gt;&lt;font&gt;LAS HORAS MULTIPLICAMOS&lt;br&gt;&lt;/font&gt;&lt;font&gt;LOS DÍAS POR 24&lt;/font&gt;" style="rounded=1;whiteSpace=wrap;html=1;" vertex="1" parent="WIyWlLk6GJQsqaUBKTNV-1">
          <mxGeometry x="-10" y="537.5" width="120" height="60" as="geometry" />
        </mxCell>
        <mxCell id="UC-qBo0WRgvxSOn6x_JI-40" value="" style="edgeStyle=orthogonalEdgeStyle;rounded=0;orthogonalLoop=1;jettySize=auto;html=1;" edge="1" parent="WIyWlLk6GJQsqaUBKTNV-1" source="UC-qBo0WRgvxSOn6x_JI-37" target="UC-qBo0WRgvxSOn6x_JI-39">
          <mxGeometry relative="1" as="geometry" />
        </mxCell>
        <mxCell id="UC-qBo0WRgvxSOn6x_JI-49" value="" style="edgeStyle=orthogonalEdgeStyle;rounded=0;orthogonalLoop=1;jettySize=auto;html=1;" edge="1" parent="WIyWlLk6GJQsqaUBKTNV-1" source="UC-qBo0WRgvxSOn6x_JI-37" target="UC-qBo0WRgvxSOn6x_JI-48">
          <mxGeometry relative="1" as="geometry" />
        </mxCell>
        <mxCell id="UC-qBo0WRgvxSOn6x_JI-37" value="&lt;br style=&quot;border-color: var(--border-color);&quot;&gt;&lt;font style=&quot;border-color: var(--border-color);&quot;&gt;¿ QUIERES SABER TUS HORAS DE NACIDO?&lt;/font&gt;" style="rhombus;whiteSpace=wrap;html=1;" vertex="1" parent="WIyWlLk6GJQsqaUBKTNV-1">
          <mxGeometry x="177.5" y="700" width="115" height="107.5" as="geometry" />
        </mxCell>
        <mxCell id="UC-qBo0WRgvxSOn6x_JI-39" value="T IENES QUE MULTIPLICAR 24 YA QUE EQUIVALE ALAS HORAS DEL DÍA" style="rounded=1;whiteSpace=wrap;html=1;" vertex="1" parent="WIyWlLk6GJQsqaUBKTNV-1">
          <mxGeometry x="-20" y="723.75" width="120" height="60" as="geometry" />
        </mxCell>
        <mxCell id="UC-qBo0WRgvxSOn6x_JI-42" value="" style="curved=1;endArrow=classic;html=1;rounded=0;entryX=1;entryY=0;entryDx=0;entryDy=0;" edge="1" parent="WIyWlLk6GJQsqaUBKTNV-1" target="UC-qBo0WRgvxSOn6x_JI-2">
          <mxGeometry width="50" height="50" relative="1" as="geometry">
            <mxPoint x="510" y="228" as="sourcePoint" />
            <mxPoint x="300" y="-110" as="targetPoint" />
            <Array as="points">
              <mxPoint x="560" y="228" />
              <mxPoint x="510" y="178" />
              <mxPoint x="610" y="-40" />
            </Array>
          </mxGeometry>
        </mxCell>
        <mxCell id="UC-qBo0WRgvxSOn6x_JI-43" value="" style="curved=1;endArrow=classic;html=1;rounded=0;entryX=1;entryY=1;entryDx=0;entryDy=0;" edge="1" parent="WIyWlLk6GJQsqaUBKTNV-1" target="UC-qBo0WRgvxSOn6x_JI-2">
          <mxGeometry width="50" height="50" relative="1" as="geometry">
            <mxPoint x="490" y="50" as="sourcePoint" />
            <mxPoint x="540" as="targetPoint" />
            <Array as="points">
              <mxPoint x="540" y="50" />
              <mxPoint x="490" />
            </Array>
          </mxGeometry>
        </mxCell>
        <mxCell id="UC-qBo0WRgvxSOn6x_JI-44" value="INICIO" style="rounded=1;whiteSpace=wrap;html=1;" vertex="1" parent="WIyWlLk6GJQsqaUBKTNV-1">
          <mxGeometry x="392.5" y="375" width="102.5" height="30" as="geometry" />
        </mxCell>
        <mxCell id="UC-qBo0WRgvxSOn6x_JI-46" value="INICIO" style="rounded=1;whiteSpace=wrap;html=1;" vertex="1" parent="WIyWlLk6GJQsqaUBKTNV-1">
          <mxGeometry x="392.5" y="551.88" width="110" height="31.25" as="geometry" />
        </mxCell>
        <mxCell id="UC-qBo0WRgvxSOn6x_JI-48" value="INICIO" style="rounded=1;whiteSpace=wrap;html=1;" vertex="1" parent="WIyWlLk6GJQsqaUBKTNV-1">
          <mxGeometry x="400" y="736.88" width="120" height="33.75" as="geometry" />
        </mxCell>
        <mxCell id="UC-qBo0WRgvxSOn6x_JI-50" value="" style="curved=1;endArrow=classic;html=1;rounded=0;" edge="1" parent="WIyWlLk6GJQsqaUBKTNV-1" target="UC-qBo0WRgvxSOn6x_JI-2">
          <mxGeometry width="50" height="50" relative="1" as="geometry">
            <mxPoint x="495" y="390" as="sourcePoint" />
            <mxPoint x="460" y="-170" as="targetPoint" />
            <Array as="points">
              <mxPoint x="545" y="390" />
              <mxPoint x="495" y="340" />
              <mxPoint x="580" y="240" />
              <mxPoint x="630" y="130" />
              <mxPoint x="590" y="60" />
              <mxPoint x="610" y="20" />
              <mxPoint x="590" y="-10" />
              <mxPoint x="600" y="-30" />
            </Array>
          </mxGeometry>
        </mxCell>
        <mxCell id="UC-qBo0WRgvxSOn6x_JI-51" value="" style="curved=1;endArrow=classic;html=1;rounded=0;" edge="1" parent="WIyWlLk6GJQsqaUBKTNV-1">
          <mxGeometry width="50" height="50" relative="1" as="geometry">
            <mxPoint x="502.5" y="570" as="sourcePoint" />
            <mxPoint x="260" y="-170" as="targetPoint" />
            <Array as="points">
              <mxPoint x="552.5" y="570" />
              <mxPoint x="502.5" y="520" />
              <mxPoint x="660" y="70" />
              <mxPoint x="630" y="40" />
              <mxPoint x="640" y="-20" />
              <mxPoint x="570" y="-100" />
            </Array>
          </mxGeometry>
        </mxCell>
        <mxCell id="UC-qBo0WRgvxSOn6x_JI-53" value="" style="curved=1;endArrow=classic;html=1;rounded=0;" edge="1" parent="WIyWlLk6GJQsqaUBKTNV-1">
          <mxGeometry width="50" height="50" relative="1" as="geometry">
            <mxPoint x="520" y="760" as="sourcePoint" />
            <mxPoint x="230" y="-170" as="targetPoint" />
            <Array as="points">
              <mxPoint x="570" y="760" />
              <mxPoint x="520" y="710" />
              <mxPoint x="640" y="190" />
              <mxPoint x="620" y="-20" />
            </Array>
          </mxGeometry>
        </mxCell>
        <mxCell id="UC-qBo0WRgvxSOn6x_JI-54" value="NO" style="text;html=1;align=center;verticalAlign=middle;resizable=0;points=[];autosize=1;strokeColor=none;fillColor=none;" vertex="1" parent="WIyWlLk6GJQsqaUBKTNV-1">
          <mxGeometry x="350" y="368" width="40" height="30" as="geometry" />
        </mxCell>
        <mxCell id="UC-qBo0WRgvxSOn6x_JI-55" value="NO" style="text;html=1;align=center;verticalAlign=middle;resizable=0;points=[];autosize=1;strokeColor=none;fillColor=none;" vertex="1" parent="WIyWlLk6GJQsqaUBKTNV-1">
          <mxGeometry x="350" y="538" width="40" height="30" as="geometry" />
        </mxCell>
        <mxCell id="UC-qBo0WRgvxSOn6x_JI-56" value="NO" style="text;html=1;align=center;verticalAlign=middle;resizable=0;points=[];autosize=1;strokeColor=none;fillColor=none;" vertex="1" parent="WIyWlLk6GJQsqaUBKTNV-1">
          <mxGeometry x="350" y="718" width="40" height="30" as="geometry" />
        </mxCell>
      </root>
    </mxGraphModel>
  </diagram>
</mxfile>
